<svg width="20" height="20" viewBox="0 0 20 20" fill="none" xmlns="http://www.w3.org/2000/svg">
<path d="M10.5917 11.1667C10.5142 11.2448 10.422 11.3068 10.3205 11.3492C10.2189 11.3915 10.11 11.4132 10 11.4132C9.89001 11.4132 9.78109 11.3915 9.67954 11.3492C9.57799 11.3068 9.48582 11.2448 9.40835 11.1667L5.59168 7.34174C5.51421 7.26364 5.42204 7.20164 5.32049 7.15933C5.21894 7.11702 5.11002 7.09524 5.00001 7.09524C4.89 7.09524 4.78108 7.11702 4.67953 7.15933C4.57798 7.20164 4.48581 7.26364 4.40834 7.34174C4.25313 7.49788 4.16602 7.70909 4.16602 7.92924C4.16602 8.1494 4.25313 8.36061 4.40834 8.51674L8.23335 12.3417C8.7021 12.8099 9.33751 13.0729 10 13.0729C10.6625 13.0729 11.2979 12.8099 11.7667 12.3417L15.5917 8.51674C15.7456 8.36152 15.8324 8.15203 15.8334 7.93341C15.834 7.82374 15.813 7.71502 15.7715 7.61349C15.73 7.51195 15.6689 7.41961 15.5917 7.34174C15.5142 7.26364 15.4221 7.20164 15.3205 7.15933C15.219 7.11702 15.11 7.09524 15 7.09524C14.89 7.09524 14.7811 7.11702 14.6795 7.15933C14.578 7.20164 14.4858 7.26364 14.4084 7.34174L10.5917 11.1667Z" fill="#4DC274"/>
</svg>
