<svg width="26" height="26" viewBox="0 0 26 26" fill="none" xmlns="http://www.w3.org/2000/svg">
<g opacity="0.8">
<path d="M15.86 3.77008C16.055 3.77008 16.2501 3.77008 16.6401 3.77008V6.69508C16.4451 6.69508 16.0551 6.69508 15.6651 6.69508C15.2751 6.69508 14.8851 6.69508 14.6901 6.89008C14.4951 7.08508 14.495 7.28008 14.495 7.73508C14.495 8.12508 14.495 8.38508 14.495 8.77508H16.6401V11.2451H14.495V21.9701H11.1801V11.1801H9.42505V8.71008H11.1801V7.86508C11.1801 6.43508 11.3751 5.39508 11.7651 4.94008C12.3501 4.09508 13.52 3.70508 15.275 3.70508C15.47 3.77008 15.665 3.77008 15.86 3.77008Z" fill="white"/>
</g>
</svg>
