<svg width="26" height="26" viewBox="0 0 26 26" fill="none" xmlns="http://www.w3.org/2000/svg">
<g opacity="0.8">
<path d="M23.3331 8.73932C23.3204 7.8664 23.1587 7.00041 22.8491 6.184C22.3074 4.78988 21.2044 3.68749 19.8079 3.14783C19.0005 2.84456 18.147 2.68197 17.283 2.66352C16.1718 2.61394 15.8196 2.6001 12.9989 2.6001C10.1783 2.6001 9.8168 2.6001 8.71374 2.66352C7.85092 2.68197 6.99734 2.84456 6.18997 3.14783C4.79352 3.68749 3.6893 4.78988 3.14874 6.184C2.84497 6.99003 2.68095 7.84219 2.66478 8.70357C2.61511 9.81402 2.6001 10.1657 2.6001 12.9816C2.6001 15.7976 2.6001 16.1573 2.66478 17.2597C2.68211 18.1223 2.84497 18.9733 3.14874 19.7816C3.69046 21.1746 4.79352 22.277 6.19112 22.8166C6.99503 23.1303 7.84861 23.3078 8.71489 23.3355C9.8272 23.3851 10.1795 23.4001 13.0001 23.4001C15.8207 23.4001 16.1822 23.4001 17.2853 23.3355C18.1481 23.3182 19.0017 23.1556 19.8102 22.8524C21.2067 22.3116 22.3097 21.2092 22.8515 19.8162C23.1552 19.009 23.3181 18.158 23.3354 17.2943C23.3851 16.185 23.4001 15.8333 23.4001 13.0162C23.3978 10.2003 23.3978 9.84285 23.3331 8.73932ZM12.992 18.3068C10.042 18.3068 7.65225 15.921 7.65225 12.9759C7.65225 10.0308 10.042 7.645 12.992 7.645C15.9397 7.645 18.3318 10.0308 18.3318 12.9759C18.3318 15.921 15.9397 18.3068 12.992 18.3068ZM18.5443 8.69088C17.8547 8.69088 17.2992 8.13508 17.2992 7.44782C17.2992 6.76056 17.8547 6.20475 18.5443 6.20475C19.2316 6.20475 19.7883 6.76056 19.7883 7.44782C19.7883 8.13508 19.2316 8.69088 18.5443 8.69088Z" fill="white"/>
<path d="M12.9935 16.2306C14.7902 16.2306 16.2467 14.7741 16.2467 12.9774C16.2467 11.1807 14.7902 9.72412 12.9935 9.72412C11.1968 9.72412 9.74023 11.1807 9.74023 12.9774C9.74023 14.7741 11.1968 16.2306 12.9935 16.2306Z" fill="white"/>
</g>
</svg>
