<svg width="26" height="26" viewBox="0 0 26 26" fill="none" xmlns="http://www.w3.org/2000/svg">
<g opacity="0.8">
<path fill-rule="evenodd" clip-rule="evenodd" d="M19.6951 4.87512C18.5901 4.81012 16.3151 4.74512 12.8701 4.74512H12.4151C9.10011 4.74512 6.89014 4.81012 5.78514 4.94012C4.29014 5.07012 3.25011 5.46012 2.66511 5.98012C2.14511 6.43512 1.75513 7.28012 1.62513 8.38512C1.56013 9.10012 1.49512 10.5951 1.49512 12.8701V13.1951C1.49512 15.3401 1.56011 16.8351 1.69011 17.5501C1.88511 18.5901 2.21014 19.3701 2.86014 19.8251C3.51014 20.3451 4.61513 20.6701 6.17513 20.8001C7.28013 20.8651 9.55513 20.9301 13.0001 20.9301H13.4551C16.7701 20.9301 18.9801 20.8651 20.0851 20.7351C21.5801 20.6051 22.6201 20.2151 23.2051 19.6951C23.7251 19.2401 24.1151 18.3951 24.2451 17.2901C24.3101 16.5751 24.3751 15.0801 24.3751 12.8051V12.4801C24.3751 10.3351 24.3101 8.84012 24.1801 8.12512C23.9851 7.08512 23.6601 6.30512 23.0101 5.85012C22.3601 5.33012 21.2551 5.00512 19.6951 4.87512ZM17.1601 12.8701L10.0101 17.1601V8.58012L17.1601 12.8701Z" fill="white"/>
</g>
</svg>
